<svg width="25" height="26" viewBox="0 0 25 26" fill="none" xmlns="http://www.w3.org/2000/svg">
<path d="M18.3314 16.1317H17.1729L16.7623 15.7358C18.522 13.6828 19.4312 10.8819 18.9326 7.90501C18.2434 3.82832 14.8413 0.572828 10.7352 0.0742392C4.53221 -0.688308 -0.688308 4.53221 0.0742392 10.7352C0.572828 14.8413 3.82832 18.2434 7.90501 18.9326C10.8819 19.4312 13.6828 18.522 15.7358 16.7623L16.1317 17.1729V18.3314L22.3641 24.5637C22.9653 25.165 23.9478 25.165 24.5491 24.5637C25.1503 23.9625 25.1503 22.98 24.5491 22.3787L18.3314 16.1317ZM9.53276 16.1317C5.88133 16.1317 2.93379 13.1842 2.93379 9.53276C2.93379 5.88133 5.88133 2.93379 9.53276 2.93379C13.1842 2.93379 16.1317 5.88133 16.1317 9.53276C16.1317 13.1842 13.1842 16.1317 9.53276 16.1317Z" fill="#A2A2A2"/>
</svg>
